<svg xmlns="http://www.w3.org/2000/svg" width="16" height="16" viewBox="0 0 16 16">
  <path fill="#61758A" d="M5.66,6.83a9.39,9.39,0,0,0,3.51,3.51L10,9.24a.86.86,0,0,1,.52-.35.87.87,0,0,1,.63.09,10.17,10.17,0,0,0,4.07,1.21.91.91,0,0,1,.58.28.87.87,0,0,1,.24.61v4a.88.88,0,0,1-.23.6,1,1,0,0,1-.57.29,13.37,13.37,0,0,1-1.42.07A13.78,13.78,0,0,1,0,2.22,13.37,13.37,0,0,1,.07.8,1,1,0,0,1,.36.23.88.88,0,0,1,1,0h4a.87.87,0,0,1,.61.24.91.91,0,0,1,.28.58A10.17,10.17,0,0,0,7,4.89a.87.87,0,0,1,.09.63A.86.86,0,0,1,6.76,6ZM3.42,6.24,5.11,5a12,12,0,0,1-1-3.26H1.79c0,.15,0,.29,0,.44a12,12,0,0,0,12,12h.44V11.87a12,12,0,0,1-3.26-1l-1.2,1.69a12.2,12.2,0,0,1-1.42-.66l-.05,0A11.33,11.33,0,0,1,4.11,7.71l0,0A12.2,12.2,0,0,1,3.42,6.24Z"></path>
</svg>