<svg xmlns="http://www.w3.org/2000/svg" width="16" height="16" viewBox="0 0 16 16">
  <path fill="#61758A" d="M4.2,13.2l.58.33a6.41,6.41,0,0,0,9.5-6.78,6.39,6.39,0,0,0-5-5,6.42,6.42,0,0,0-3.7.37A6.35,6.35,0,0,0,2.68,4.44,6.45,6.45,0,0,0,1.6,8a6.32,6.32,0,0,0,.87,3.22l.33.58-.52,1.92ZM0,16l1.08-4A8,8,0,1,1,4,14.92ZM5.11,4.25h.33l.12,0a.4.4,0,0,1,.32.2c.24.54.47,1.08.69,1.63a.5.5,0,0,1-.07.43l-.21.29c-.09.12-.29.33-.29.33a.25.25,0,0,0,0,.22A.59.59,0,0,0,6,7.52l0,.08a5.27,5.27,0,0,0,.82,1l.29.28a4.73,4.73,0,0,0,1.26.8h0l.2.09.15.05a.32.32,0,0,0,.17,0,.26.26,0,0,0,.13-.1A6.23,6.23,0,0,1,9.74,9h0a.25.25,0,0,1,.14-.08.29.29,0,0,1,.16,0,.35.35,0,0,1,.14,0l1.12.5.46.21a.27.27,0,0,1,.16.21c0,.05,0,.14,0,.3a2.56,2.56,0,0,1-.15.58,1,1,0,0,1-.17.24,1.18,1.18,0,0,1-.27.23l-.1.08-.3.17a1.77,1.77,0,0,1-.67.19c-.15,0-.29,0-.44,0l-.46-.07A7.5,7.5,0,0,1,6.28,9.92c-.18-.16-.35-.33-.52-.5A7.77,7.77,0,0,1,4.18,7.23,3,3,0,0,1,3.92,6.1a2.26,2.26,0,0,1,.45-1.35,2,2,0,0,1,.21-.24.78.78,0,0,1,.24-.18.6.6,0,0,1,.29-.08Z"></path>
</svg>